<svg xmlns="http://www.w3.org/2000/svg" height="158.85" width="227.68" version="1.1">
 <g transform="translate(-463.14 -529.67)">
  <path fill="#15d880" fill-rule="evenodd" d="m510.38 566.44s3.1992 0.5825 3.6836 1.8425c0.38812 1.3575 0.19387 2.6175-1.5512 3.49s-3.8775 1.745-4.9444 1.9388c-1.0659 0.19375-3.393 0.3875-3.393 0.3875s-0.29063 1.5512 1.9389 1.7462c2.1334 0.19375 4.4595 0 4.4595 0l-2.1324 2.1325s0.87213 0.8725 2.3262 0.29125c1.5512-0.67875-0.77487 1.9388-0.77487 1.9388s-3.2965-0.485-4.1695 0.3875c-0.77537 0.8725-3.8774 1.5512-3.8774 1.5512l-3.1992 0.3875-1.7451 1.745s-4.0722 0.19375-3.3936-1.745c0.67874-1.9388 2.1329-4.5562 2.1329-4.5562l3.6841-3.0062v-2.1325s2.1332 0.67875 3.8779-1.0662c1.7451-1.745 3.3935-3.6838 3.3935-3.6838l3.6841-1.6488zm-22.396 65.15s1.939 0.87262 1.939 1.939c0 1.0669-1.2602 2.1332-1.2602 2.1332l-2.4239-2.8115 1.7451-1.2608zm0.19388-3.8774s3.4902-7.2715 5.4291-7.5625c1.9395-0.19337 5.6231-3.0054 5.6231-3.0054s2.7149-1.9385 3.0054 0.873c0.19388 2.811 0.5815 6.3012 0.5815 6.3012s-1.0659 3.5874-1.6479 5.5264c-0.67825 1.9385 1.2602 6.4956-2.6172 9.3071-3.8784 2.7144-5.8174 1.066-5.8174 1.066s-2.8115-0.87213 0.19387-3.8775l6.0112-6.0112s-3.3931-1.3569-4.6539 0.582c-1.3574 1.939-2.4234 1.7451-2.4234 1.7451s0-2.8115-1.0669-3.0054c-1.0664-0.19375-2.6176-1.9389-2.6176-1.9389zm-21.038-8.1441s4.2656-0.67863 5.623-1.9389c1.2602-1.357 4.0719-1.7451 4.0719-1.7451l2.521-1.5512s0.872 4.9448 1.7446 5.4296c0.8725 0.38725 1.5512 2.1324 1.5512 2.1324s3.1996-6.689 7.4652-8.8219c4.3624-2.1332 5.2349-6.8838 5.2349-6.8838s4.7505 2.1334 6.0108 2.1334 4.2656-2.8121 6.2046-1.067c1.9395 1.7451 5.4292 3.1992 5.4292 3.1992s0.38813 3.2964 1.2602 5.2354c0.873 1.939 1.7451 7.4654 0.19425 7.7559-1.4545 0.19387-3.8784 7.7564-4.4594 9.6948-0.67925 1.8419-5.6236 12.604-7.5625 14.542-1.9385 1.939-9.3071 6.4956-11.44 7.1739-2.1324 0.58199-4.7505-0.48438-5.8169-1.357-1.0659-0.8725-2.3266-3.0054-2.3266-3.0054s-2.3268 13.573-2.6178 16.578c-0.19387 3.0054-0.5815 5.4288-0.5815 5.4288v5.5264s-2.2295 0.67875-2.6178 1.939c-0.38763 1.3574-0.67863 2.8115-1.9389 3.0054-1.2602 0.29101-1.7451-2.1329-1.7451-2.1329l-5.3321 3.6841s0.19385-4.5566 1.2603-8.8222c1.0664-4.2656 1.5512-10.567 1.5512-15.027 0-4.5571 1.0664-15.512 1.0664-15.512s-1.0664-3.4902 0.19387-4.0712c1.2602-0.67875 2.1332-4.5571 2.1332-4.5571s-3.6845-1.9385-4.46-6.4956c-0.8725-4.4595-2.6176-10.47-2.6176-10.47zm107.13-3.2959 4.0722-0.19437 0.48438 1.7451 2.5205 0.38825s-1.0665 1.9385-0.38775 3.4898c0.679 1.4546-3.1992 5.8169-3.1992 7.7564 0 1.9389-0.67863 5.1381-0.67863 5.1381s7.9506-5.8174 11.439-8.4345c3.3938-2.521 6.0112-5.3326 6.0112-5.3326s5.5262-3.684 7.2712-6.0108c1.745-2.4238 2.4238-3.0049 3.6838-1.9389 1.26 1.0664 1.5512 3.1991 1.5512 3.1991s2.1325 1.7451 1.4538 4.0719c-0.6775 2.4237-0.6775 4.5571-0.6775 4.5571s-6.0112 4.7505-5.8175 7.0766c0.29125 2.4239 1.1638 2.1332 5.0412-0.19387 3.7812-2.3266 7.6588-4.0718 7.6588-4.0718l4.5575-4.9444s-3.0062-0.67862-3.2-1.7451c-0.19375-1.0659 3.2-3.684 3.2-3.684s-1.5512-2.3268-1.0675-3.3931c0.38875-1.0664 1.745-3.0054 1.745-3.0054l4.46-0.48437s5.4288-7.9501 5.8175-8.8226c0.485-0.8725 1.745-2.8112 5.1375-6.01 3.4912-3.2 6.4962-9.5012 6.4962-10.956 0-1.5512 0.8725-3.49 0.8725-3.49s2.8112-1.0662 3.3925 0.29125c0.67875 1.26-0.58125 6.205 0.29125 7.2712s3.2-3.2 3.2-3.2 2.6162 2.3275 1.065 4.0725c-1.4538 1.745-2.3262 4.0712-2.3262 4.0712s0 4.945-1.9388 6.69-4.3625 4.944-4.3625 4.944l-0.3875 5.332s5.1375-3.7808 7.95-3.5869c2.81 0.19388 6.01-0.87262 6.01-0.87262l9.5012-3.0052 5.5262-0.8725s9.3062-1.5512 9.6938-2.6175c0.485-1.0662-3.1988 3.8775-6.01 5.8171-2.8112 1.9384-6.3988 0.19324-8.1438 1.7446-1.745 1.4545-6.495 4.7509-6.495 4.7509l4.0712-0.48488s-9.21 2.8111-11.828 4.5562c-2.5212 1.7451-11.536 6.8838-11.536 6.8838s6.01 5.6225 7.0762 8.1435c1.0662 2.6172 4.75 7.7559 9.695 10.18 4.9438 2.3261 8.8225 4.0712 8.8225 4.0712s-1.9388 3.3936-5.235 2.3271c-3.2-1.0669-7.7562-0.582-7.7562-0.582s-2.3275-4.3623-6.205-5.6225c-3.8775-1.2607-8.8212-2.6178-8.8212-2.6178s-3.8788-1.4545-5.1388-3.0054c-1.2612-1.4545-4.3625-2.1332-4.3625-2.1332s0 1.4541-1.26 2.812c-1.2612 1.2602-5.3325 4.9444-6.8838 6.3985-1.455 1.5512-2.8112 4.1684-3.005 6.1079-0.195 1.8418-1.7462 6.3984-1.7462 6.3984s-0.8725 1.2602-1.26 3.1992-6.6888 8.6284-7.7562 9.3066c-1.0662 0.582-5.6225 7.9502-5.8162 9.6949-0.19375 1.6484-1.0662 3.0059-1.0662 3.0059l-1.745-6.8834-1.9388 3.0054-0.87375-3.0054-2.7138-0.48488s4.0712-6.3984 5.8162-8.5317c1.6488-2.2294 5.3325-9.3066 6.0112-11.44 0.58125-2.1324 5.5262-13.378 5.5262-13.378s-1.2612-2.8116-5.1388 1.9384c-3.8775 4.7505-7.7562 6.8839-7.7562 6.8839s0.67875 3.2959-2.52 4.9442c-3.2962 1.7451-4.945 0.67874-4.945 0.67874l-0.6775-1.7451s-2.4238 1.7451-2.6188-0.38763c-0.19375-2.1334-0.58125-7.5621 0.8725-9.8892 1.5512-2.4232 1.7462-6.4951 1.7462-6.4951v-2.3271s-8.4352 6.0112-9.6955 8.5318c-1.2602 2.6176-5.332 5.623-5.332 5.623l-3.684 4.7505s-6.4956 1.7451-6.8834 2.8116c-0.48487 1.0659-4.3628 0.8725-5.8169 1.2602-1.5512 0.48475-1.2602-3.6841 0-4.0719 1.2602-0.38812-4.0718-1.9389-4.0718-1.9389s7.271-7.562 7.7554-10.567c0.38812-3.0059 4.6537-7.0772 4.6537-7.0772s2.4239-7.0776 4.169-8.8228c1.6479-1.7451 4.0718-5.6225 4.0718-5.6225l0.38775-1.939zm-51.577 6.8834s2.5205-4.46 4.6539-5.1382c2.23-0.67913 3.0054 3.1992 3.0054 3.1992s3.684-1.6485 4.5566 0c0.8725 1.7451 0.67862 2.811-2.1329 5.2354-2.8115 2.3261-3.8784 5.8164-3.8784 7.9496 0 2.1324-2.811 7.2705-2.811 7.2705s4.0712-2.811 7.7559-4.0712c3.684-1.2602 6.8833-5.6235 6.8833-5.6235s5.1381-3.1992 5.8164-4.4595c0.67925-1.3569 3.0059-4.75 3.0059-4.75l3.878-1.9395s2.811-5.332 5.332-3.1991c2.6176 2.1332-0.19387 5.1386-0.19387 5.1386l4.0718-1.5512s-2.5205 5.2354-2.5205 6.3012c0 1.0664-6.4956 5.623-6.4956 8.144 0 2.6172-4.0718 7.9498-4.0718 7.9498l-3.0059 4.3622s-1.2598 7.0778-2.6171 7.7564c-1.2602 0.58163-3.878-0.48487-3.878-0.48487s-4.4595 1.5512-5.5259 1.5512c-1.0669 0 1.0664-3.0052 1.0664-3.0052l-1.9394-1.1636s4.0722-4.9444 4.2661-7.6592c0.19388-2.8115-0.67875-2.4232-1.7451-0.872-1.0664 1.4541-4.0718 5.8164-6.2046 6.8832-2.1328 1.0665-5.8169 2.1324-5.8169 2.1324l-6.0108 6.6895-3.8784-1.5509h-2.6172s0-3.0054-1.2602-3.3935c-1.2607-0.48437-3.1998 0.582-3.1998 0.582s2.1329-8.1435 5.1383-9.6948c3.0054-1.4541 3.4902-5.5264 3.4902-5.5264s-1.357-4.0714 0.58201-5.8165c1.939-1.7451 4.3624-5.8174 4.3624-5.8174l1.9389-5.4286zm5.8169-32.478c-0.19375-1.26 0-2.4238 0.77587-4.2662 1.5514-3.6838 7.9498-6.8825 8.2408-8.1425 0.19387-1.3575 3.3931-3.2975 3.3931-3.2975s-1.0665-2.52-0.19388-2.52c0.87213 0 3.8779-3.005 4.9444-4.5562 1.0664-1.455 2.6171-3.8788 3.8779-4.0725 1.2602-0.19375 3.3931 0.8725 3.3931 0.8725l2.2299-2.1325s1.648 0 3.1992 0.19375c1.4541 0.19375 3.6841 0.19375 4.5566 1.4538 0.77538 1.3575 1.4541 4.7512 1.4541 4.7512l3.1992-4.945 2.4239-4.0712s0.8725-1.745 2.3266-1.9388c1.5512-0.19375 0.67863 1.9388 1.5512 2.1325 0.8725 0.19375 4.2656 0 5.1381 0.485 0.87262 0.3875 1.067 1.26-0.19375 2.3262-1.3575 1.0662-5.817 7.2712-6.3018 9.695-0.38775 2.3262-1.4541 5.6238-1.4541 5.6238l-1.7451 3.3925s2.6176 0.19375 4.0718-0.8725c1.5512-1.0662 4.5566-2.52 4.5566-2.52l4.2656-2.8125s-0.58125-2.4238 1.3575-5.6225c1.9388-3.2 6.3988-5.8175 6.3988-5.8175s5.8162-7.2712 6.8825-9.5c1.0675-2.1338 2.6175-3.5875 2.6175-3.5875s-1.55-1.745 1.2612-4.3625c2.8112-2.5212 5.4288-4.0725 5.4288-4.0725s-1.5512-2.8112 0.58125-3.6838c2.1338-0.77625 5.2362-2.715 5.2362-2.715s1.9388-1.5512 2.52-0.48375c0.67875 1.0662 4.7512-0.8725 4.7512-0.8725l2.6175-1.0662s2.3262 0.6775 1.9388 2.4225c-0.485 1.6488-0.485 3.8788-0.485 3.8788s3.2 2.715 1.9388 5.1388c-1.26 2.3262-0.67875 4.4588-2.1325 6.01-1.5512 1.4538-1.5512 3.005-1.5512 3.005s-2.1325-2.3262-4.0712 0c-1.94 2.3275-4.46 2.6175-4.46 2.6175s-2.23 1.455-2.8125-0.29c-0.6775-1.6488 3.685-4.6538 3.685-4.6538l0.19375-6.6888s-3.6838-0.485-4.0725 1.4538c-0.48375 1.9388-1.5512 4.9438-1.5512 4.9438s-1.4538 1.745-1.745 3.4912c-0.19375 1.7438-2.1325 3.1988-3.1988 4.75-1.0662 1.4538-2.1325 4.9438-2.1325 4.9438l-2.4238 3.3938s6.3012-0.3875 9.3062-2.8112c3.0062-2.3275 9.695-5.5262 9.695-5.5262l3.5875 0.3875 7.175-2.3262s1.26 0.3875 0.3875 1.4538-3.8788 3.2962-3.8788 3.2962l-4.265 2.1325s-1.9388-2.6175-3.2962-0.8725c-1.2612 1.745-5.72 4.2662-5.72 4.2662l3.8775 0.485-4.75 3.3925s-3.685-0.8725-5.6238 0.485c-1.9388 1.26-7.2712 3.005-7.2712 3.005s-4.5562 0.38875-6.1075 4.0725c-1.4538 3.6838-3.1988 9.21-3.1988 9.21s-0.19375 0.8725-0.5825 1.9388c-0.3875 1.2612-1.0662 2.8112-1.745 3.2962-1.3575 0.775-2.8112 1.9388-4.9438 4.0712-2.2302 2.1338-2.4241 4.945-2.2302 6.205 0.291 1.2604 0.67925 3.6842 0.67925 3.6842s-3.1998-0.48488-4.9449 1.0664c-1.7451 1.4541-4.0718 2.1329-4.0718 2.1329l0.19388-3.878-2.3268 4.9444-2.6176-1.4541s3.6841-7.9495 4.7505-9.8882c1.0664-1.9388 2.6176-6.8838 2.6176-6.8838l1.4541-3.2962 0.38775-1.0662s-0.87263 0.485-1.9385 1.0662c-2.0361 1.0662-4.8478 2.6175-5.5264 3.49-1.0664 1.2612-3.6841 3.8775-3.6841 3.8775s-1.0664 0.87375-1.939 1.2612c-0.8725 0.485-3.8779 1.5512-3.8779 1.5512s0.67875-3.8788 0.19387-5.4288c-0.29049-0.97 0-3.2962 0.29101-4.7512 0.0966-0.775 0.19387-1.26 0.19387-1.26s-0.67875 0.485-1.1636 1.26c-0.19388 0.29125-0.48488 0.67875-0.5815 1.0662-0.38775 1.3575-2.6178 3.2962-3.3931 3.685-0.8725 0.48375-2.812 0.87125-2.812 0.87125s-1.9385 4.0725-3.2959 4.7512c-1.2602 0.58125-3.5869-0.19375-3.5869-0.19375s-2.23 1.4538-4.3629 1.4538c-2.1328 0-3.3935-3.005-3.3935-3.005s-1.066 0.8725-2.6172 0.485c-1.454-0.485-1.7451-1.94-1.7451-1.94s-1.2602 1.0675-2.5205-2.8112c-0.67862-1.9388-1.1635-3.1988-1.2608-4.3625zm18.032 0c1.1641-0.67875 2.2305-1.3575 3.0059-1.6475 2.1329-1.1638 6.2046-6.4962 6.2046-6.4962l-5.332 2.1325 0.5815-2.1325s-1.8418 0.19375-3.7808 0.19375-1.7451-1.26-1.7451-1.26 4.9444-3.005 7.0771-4.3625c2.1329-1.26 2.1329-3.7812 2.1329-4.6538s-4.2656-1.0662-5.1382-0.485c-0.87249 0.67875-1.939 4.5562-3.8779 5.8175l-1.2602 1.9388-1.5514 3.6838s-1.9389 4.2662-3.8779 5.3325c-0.77587 0.485-1.0664 1.1638-1.2602 1.9388-0.291 1.1638 0 2.4238 0 2.4238l4.2656 0.3875s2.3266-1.4538 4.5561-2.8112zm91.907-33.544s-2.4238-0.38875-3.2962-1.26c-0.8725-0.8725-5.1375-1.7462-5.1375-1.7462l3.005-2.8112 3.1988-0.3875-2.8112-2.8112s3.8788-3.8788 6.69-3.1988c2.8112 0.58 7.5612 3.3925 7.5612 3.3925s3.3938 1.5512 4.2662-0.19375 2.8112-4.5562 4.9438-4.0725c2.23 0.38875 1.3575 3.8788 1.3575 3.8788s4.7512-0.87375 5.1388 0c0.3875 0.87125-2.1325 4.6525-2.1325 4.6525s1.4538 1.7462 4.9438 2.23c3.3925 0.38875 6.0112 3.3938 6.0112 3.3938l9.6938 2.6175 4.945 2.3262s-6.8838-0.8725-8.435-0.8725h-3.3925l2.1325 2.6175s-5.8162-1.9388-8.435-2.1325c-2.52-0.19375-9.5975-0.485-11.342-1.0662-1.745-0.67875-3.005-1.9388-3.005-1.9388s-2.4238-1.3575-3.49 0.3875-4.46 4.3625-6.3988 5.4288c-1.94 1.0662-5.4288 3.5875-8.2412 7.0775-2.8112 3.3938-11.342 11.634-14.348 13.961-3.0062 2.4238-10.374 12.7-10.374 12.7l-4.46 0.485-0.485-3.4912s-1.4538 2.3275-3.3925 3.4912c-1.9388 1.0662-4.1688 1.6475-4.1688 1.6475s3.49-5.3325 7.755-9.4038c4.3638-4.1688 15.706-17.064 16.191-18.324 0.3875-1.26 9.6938-10.761 9.6938-10.761l5.8175-5.8162zm-114.3 11.44c0.8725-1.0662 4.2656-8.2412 5.8169-9.5012 1.5512-1.26 4.7505-4.5562 4.7505-5.3325 0-0.8725 4.4595-7.5612 5.1381-9.1125 0.67875-1.455 3.878-4.945 3.878-4.945l5.8169 2.23-1.7451 3.0062h2.8115s-0.8725 2.1312-1.9389 3.1988c-1.0665 1.0662-4.0719 5.6225-4.0719 5.6225l-3.0058 3.8788-5.4288 6.3975-4.6534 8.8225s-1.9389 2.4238-2.6181 3.2c-0.67825 0.8725-1.7446 3.2962-1.7446 3.2962s-3.878 3.1988-5.1386 5.1375c-1.2602 1.9388-3.0054 5.6238-1.9385 7.95 1.0664 2.3262 1.0664 4.5562 1.0664 4.5562-1.939 1.2612-3.4902 0-4.5566 0.3875-1.0669 0.485-1.648 1.5525-2.521 0.87375-0.87213-0.67875-3.6836-1.7462-3.6836-2.8112 0-1.0675-0.67874-6.8838-0.67874-6.8838s-6.2045 3.6838-7.2714 4.0712c-1.0665 0.485-4.0719-0.19375-5.4288 0.19375-1.2608 0.485-2.7149 1.3575-4.2661 0.485-1.4541-0.8725-4.5566-1.5512-4.5566-1.5512l-0.77538-1.9388s-2.4239-0.775-3.4898-1.0662c-1.0669-0.19375-2.1334-2.5212-2.1334-3.8788 0-1.26-0.67863-5.1375 1.2602-6.3975 1.939-1.3575 3.0054-4.945 3.0054-4.945s1.939-0.485 3.2964-1.0662c1.2608-0.67875 4.46-2.8112 4.46-2.8112s2.1324-1.3575 3.6836-3.0062c1.4546-1.745 3.6841-3.49 7.7564-5.235 4.0712-1.6475 7.7554-3.1988 7.7554-3.1988l2.8115 0.8725s1.4541-0.67875 2.521-0.67875c1.0664 0 4.0718 0.8725 4.0718 0.8725s1.5508 2.8112 1.5508 3.8775 0.19438 5.43 0.19438 5.43"/>
 </g>
</svg>
