<?xml version="1.0" encoding="iso-8859-1"?>
<!-- Generator: Adobe Illustrator 18.1.1, SVG Export Plug-In . SVG Version: 6.00 Build 0)  -->
<svg version="1.1" id="Capa_1" xmlns="http://www.w3.org/2000/svg" xmlns:xlink="http://www.w3.org/1999/xlink" x="0px" y="0px"
	 viewBox="0 0 30.393 30.393" style="enable-background:new 0 0 30.393 30.393;" xml:space="preserve">
<g>
	<path d="M20.842,6.723V5.775H9.553v0.947c0,0,1.717,4.781,4.939,6.988v2.297c0,0-3.554,3.459-4.939,7.434v1.084h11.288v-1.084
		c-1.801-4.389-4.939-7.434-4.939-7.434V13.71C20.284,9.945,20.842,6.723,20.842,6.723z"/>
	<path d="M24.91,4.963V3.256h1.619V0H3.864v3.256h1.621v1.707c0,2.607,4.677,9.725,4.896,10.238
		c-0.215,0.514-4.896,7.633-4.896,10.229v1.705H3.864v3.258h22.665v-3.258H24.91V25.43c0-2.607-4.679-9.68-4.929-10.234
		C20.231,14.643,24.91,7.568,24.91,4.963z M23.293,25.43v1.705H7.103V25.43c0-1.873,4.96-9.295,4.96-10.234s-4.96-8.359-4.96-10.232
		V3.256h16.189v1.707c0,1.873-5.002,9.293-5.002,10.232S23.293,23.557,23.293,25.43z"/>
	<g>
	</g>
	<g>
	</g>
	<g>
	</g>
	<g>
	</g>
	<g>
	</g>
	<g>
	</g>
	<g>
	</g>
	<g>
	</g>
	<g>
	</g>
	<g>
	</g>
	<g>
	</g>
	<g>
	</g>
	<g>
	</g>
	<g>
	</g>
	<g>
	</g>
</g>
<g>
</g>
<g>
</g>
<g>
</g>
<g>
</g>
<g>
</g>
<g>
</g>
<g>
</g>
<g>
</g>
<g>
</g>
<g>
</g>
<g>
</g>
<g>
</g>
<g>
</g>
<g>
</g>
<g>
</g>
</svg>
