<?xml version="1.0" encoding="iso-8859-1"?>
<!-- Generator: Adobe Illustrator 18.0.0, SVG Export Plug-In . SVG Version: 6.00 Build 0)  -->
<!DOCTYPE svg PUBLIC "-//W3C//DTD SVG 1.1//EN" "http://www.w3.org/Graphics/SVG/1.1/DTD/svg11.dtd">
<svg version="1.1" id="Capa_1" xmlns="http://www.w3.org/2000/svg" xmlns:xlink="http://www.w3.org/1999/xlink" x="0px" y="0px"
	 viewBox="0 0 386.576 386.576" style="enable-background:new 0 0 386.576 386.576;" xml:space="preserve">
<g>
	<g>
		<path style="fill:#231F20;" d="M323.54,173.105c-7.207,0-13.947,1.954-19.782,5.31c-3.462-18.395-19.595-32.312-39.007-32.312
			c-7.874,0-15.186,2.316-21.361,6.274c-5.771-14.825-20.143-25.333-36.988-25.333c-7.398,0-14.286,2.051-20.219,5.57V39.715
			C186.183,17.778,168.392,0,146.47,0c-21.941,0-39.714,17.778-39.714,39.715v179.202l-14.067-15.831
			c-14.551-16.4-39.656-17.879-56.055-3.32c-16.403,14.573-17.891,39.675-3.32,56.075l86.635,97.547
			c17.421,17.05,47.141,33.188,72.679,33.188h85.319c47.129,0,85.342-34.201,85.342-76.4l-0.035-97.351
			C363.253,190.893,345.463,173.105,323.54,173.105z"/>
	</g>
</g>
<g>
</g>
<g>
</g>
<g>
</g>
<g>
</g>
<g>
</g>
<g>
</g>
<g>
</g>
<g>
</g>
<g>
</g>
<g>
</g>
<g>
</g>
<g>
</g>
<g>
</g>
<g>
</g>
<g>
</g>
</svg>
