<?xml version="1.0" encoding="iso-8859-1"?>
<!-- Generator: Adobe Illustrator 16.0.0, SVG Export Plug-In . SVG Version: 6.00 Build 0)  -->
<!DOCTYPE svg PUBLIC "-//W3C//DTD SVG 1.1//EN" "http://www.w3.org/Graphics/SVG/1.1/DTD/svg11.dtd">
<svg version="1.1" id="Capa_1" xmlns="http://www.w3.org/2000/svg" xmlns:xlink="http://www.w3.org/1999/xlink" x="0px" y="0px"
	 width="561.691px" height="561.691px" viewBox="0 0 561.691 561.691" style="enable-background:new 0 0 561.691 561.691;"
	 xml:space="preserve">
<g>
	<g>
		<path d="M472.092,161.797h0.01c0,0,4.327,0,4.533,0c2.247,0,3.208,1.841,3.399,2.286c0,0,32.148,104.829,32.163,104.833
			c3.49,11.351,15.52,17.734,26.875,14.248c11.365-3.485,17.753-15.519,14.268-26.879c-0.015-0.043-18.905-61.654-31.881-103.959
			c-0.135-0.516-0.254-0.961-0.359-1.324c-4.915-17.083-16.241-55.988-52.531-55.988h-89.442c-33.813,0-45.111,38.905-50.031,55.988
			c-0.105,0.363-32.226,105.245-32.24,105.283c-3.485,11.36,2.902,23.399,14.263,26.879c11.355,3.482,23.385-2.896,26.875-14.248
			c0.01,0,32.164-104.833,32.164-104.833c0.191-0.445,1.152-2.286,3.399-2.286c0.205,0,4.532,0,4.532,0h0.01
			c1.281-0.019,2.027,1.066,1.688,2.295L315.42,374.74c-0.349,1.229,0,3.375,2.242,3.375h44.5c1.281,0,2.213,1.037,2.213,2.314
			c0,0-0.009,153.459-0.009,153.516c0,15.324,12.421,27.746,27.745,27.746s27.746-12.422,27.746-27.746l0.009-153.516
			c0-1.281,1.033-2.314,2.314-2.314h0.038h4.438h0.038c1.281,0,2.314,1.033,2.314,2.314l0.009,153.516
			c0,15.324,12.422,27.746,27.746,27.746s27.745-12.422,27.745-27.746c0-0.051-0.009-153.516-0.009-153.516
			c0-1.281,0.937-2.314,2.213-2.314h45.81c2.242,0,2.592-2.146,2.242-3.375L470.4,164.093
			C470.065,162.864,470.811,161.778,472.092,161.797z"/>
		<circle cx="425.098" cy="41.291" r="41.291"/>
		<ellipse cx="145.844" cy="308.328" rx="42.367" ry="43.318"/>
		<path d="M11.883,461.262c3.763,4.455,9.132,6.752,14.54,6.752c4.327,0,8.678-1.469,12.25-4.48l64.805-54.627
			c-13.636-16.146-29.591-23.451-48.281-9.055l-41.047,34.621C6.126,441.242,5.108,453.234,11.883,461.262z"/>
		<path d="M236.401,559.684c20.249,0,36.663-16.414,36.663-36.662s-16.414-36.662-36.663-36.662c-2.697,0-5.321,0.311-7.851,0.865
			l-29.137-33c17.165-27.885,19.967-73.158,14.229-102.219c-0.158-0.809,0.665-1.947,1.243-2.529
			c8.205-8.281,15.51-17.49,23.768-25.729c5.13-5.115,10.643-9.602,17.041-12.938c7.162-3.734,12.88-1.35,18.513,3.035
			c0.65,0.508,1.2,0.98,1.243,1.043c0.029,0.039,0.053,0.076,0.086,0.109c8.654,10.477,2.462,21.037-6.072,29.031
			c-7.55,7.068,3.682,18.49,11.193,11.447c13.698-12.832,19.073-29.859,10.418-45.574c-0.397-0.723-2.893-5.088-7.612-9.109
			c-6.201-4.818-12.799-8.414-21.075-8.252c-8.463,0.168-16.667,4.834-23.347,9.73c-14.999,10.986-25.513,26.707-39.005,39.33
			c-0.148,0.139-0.287,0.281-0.421,0.426c-0.225,0.244-0.908,0.875-1.544,1.391c0,0-77.126,63.701-121.855,100.822l-32.766,26.957
			l0.062,0.076h-0.062v17.184c-14.272,5.016-24.518,18.576-24.518,34.559c0,20.25,16.414,36.664,36.663,36.664
			s36.663-16.414,36.663-36.664c0-16.848-11.384-31.01-26.871-35.299v-9.506l21.941-18.049
			c21.788,9.189,33.899,21.836,75.549,18.594c7.898-0.617,14.784-3.227,20.755-7.324l24.719,27.998
			c-5.364,6.379-8.611,14.598-8.611,23.586C199.738,543.27,216.152,559.684,236.401,559.684z"/>
	</g>
</g>
<g>
</g>
<g>
</g>
<g>
</g>
<g>
</g>
<g>
</g>
<g>
</g>
<g>
</g>
<g>
</g>
<g>
</g>
<g>
</g>
<g>
</g>
<g>
</g>
<g>
</g>
<g>
</g>
<g>
</g>
</svg>
