<?xml version="1.0" encoding="UTF-8" standalone="no"?>
<!-- Created with Inkscape (http://www.inkscape.org/) -->

<svg
   xmlns:dc="http://purl.org/dc/elements/1.1/"
   xmlns:cc="http://creativecommons.org/ns#"
   xmlns:rdf="http://www.w3.org/1999/02/22-rdf-syntax-ns#"
   xmlns:svg="http://www.w3.org/2000/svg"
   xmlns="http://www.w3.org/2000/svg"
   xmlns:xlink="http://www.w3.org/1999/xlink"
   version="1.1"
   width="32"
   height="32"
   viewBox="0 0 32 32"
   id="svg4608"
   xml:space="preserve"><metadata
   id="metadata4941"><rdf:RDF><cc:Work
       rdf:about=""><dc:format>image/svg+xml</dc:format><dc:type
         rdf:resource="http://purl.org/dc/dcmitype/StillImage" /><dc:title></dc:title></cc:Work></rdf:RDF></metadata><defs
   id="defs4939">
	
	<linearGradient
   x1="33.5"
   y1="22"
   x2="33.5"
   y2="13.0005"
   id="SVGID_1_"
   gradientUnits="userSpaceOnUse">
		<stop
   id="stop4847"
   style="stop-color:#cccccc;stop-opacity:1"
   offset="0" />
		<stop
   id="stop4849"
   style="stop-color:#f2f2f2;stop-opacity:1"
   offset="1" />
	</linearGradient>
	
	
	<linearGradient
   x1="10.5"
   y1="22"
   x2="10.5"
   y2="13.0005"
   id="SVGID_2_"
   gradientUnits="userSpaceOnUse">
		<stop
   id="stop4856"
   style="stop-color:#cccccc;stop-opacity:1"
   offset="0" />
		<stop
   id="stop4858"
   style="stop-color:#f2f2f2;stop-opacity:1"
   offset="1" />
	</linearGradient>
	
	
	<linearGradient
   x1="22.0005"
   y1="21"
   x2="22.0005"
   y2="11.0005"
   id="SVGID_3_"
   gradientUnits="userSpaceOnUse">
		<stop
   id="stop4865"
   style="stop-color:#cccccc;stop-opacity:1"
   offset="0" />
		<stop
   id="stop4867"
   style="stop-color:#f2f2f2;stop-opacity:1"
   offset="1" />
	</linearGradient>
	
	<linearGradient
   x1="22.0005"
   y1="32"
   x2="22.0005"
   y2="26"
   id="SVGID_4_"
   gradientUnits="userSpaceOnUse">
		<stop
   id="stop4872"
   style="stop-color:#999999;stop-opacity:1"
   offset="0" />
		<stop
   id="stop4874"
   style="stop-color:#e6e6e6;stop-opacity:1"
   offset="1" />
	</linearGradient>
	
	
	
	
	
	
	
<linearGradient
   x1="22.0005"
   y1="21"
   x2="22.0005"
   y2="11.0005"
   id="linearGradient5338"
   xlink:href="#SVGID_3_"
   gradientUnits="userSpaceOnUse"
   gradientTransform="translate(-5.9429245,-2.9351587)" /></defs>

<rect
   width="7"
   height="9"
   x="24.057076"
   y="19.064842"
   id="rect4844"
   style="fill:#a05a2c;fill-rule:evenodd" /><rect
   width="7"
   height="9"
   x="24.057076"
   y="10.064841"
   id="rect4851"
   style="fill:#f2f2f2;fill-rule:evenodd" /><rect
   width="7"
   height="9"
   x="1.0570755"
   y="19.064842"
   id="rect4853"
   style="fill:#a05a2c;fill-rule:evenodd" /><rect
   width="7"
   height="9"
   x="1.0570755"
   y="10.064841"
   id="rect4860"
   style="fill:#f2f2f2;fill-rule:evenodd" /><rect
   width="14"
   height="11"
   x="9.0570755"
   y="18.064842"
   id="rect4862"
   style="fill:#a05a2c;fill-rule:evenodd" /><rect
   width="14"
   height="10"
   x="9.0570755"
   y="8.0648413"
   id="rect4869"
   style="fill:#f2f2f2;fill-rule:evenodd" /><rect
   width="6"
   height="6"
   x="13.057076"
   y="23.064842"
   id="rect4876"
   style="fill:#ffffff;fill-rule:evenodd" /><rect
   width="3"
   height="3"
   x="3.0570755"
   y="22.064842"
   id="rect4878"
   style="fill:#ffffff;fill-rule:evenodd" /><rect
   width="3"
   height="3"
   x="3.0570755"
   y="13.064841"
   id="rect4880"
   style="fill:#ffffff;fill-rule:evenodd" /><rect
   width="3"
   height="3"
   x="11.057076"
   y="11.064841"
   id="rect4882"
   style="fill:#ffffff;fill-rule:evenodd" /><rect
   width="3"
   height="3"
   x="18.057076"
   y="11.064841"
   id="rect4884"
   style="fill:#ffffff;fill-rule:evenodd" /><rect
   width="3"
   height="3"
   x="26.057076"
   y="13.064841"
   id="rect4886"
   style="fill:#ffffff;fill-rule:evenodd" /><rect
   width="3"
   height="3"
   x="26.057076"
   y="22.064842"
   id="rect4888"
   style="fill:#ffffff;fill-rule:evenodd" />
<g
   transform="translate(-5.9429245,-2.9351587)"
   id="Layer_1">
	<g
   id="g4891">
		<rect
   width="1"
   height="6"
   x="21"
   y="5"
   id="rect4893"
   style="fill-rule:evenodd" />
		<path
   d="m 21,5 v 3 h 5 V 5 h -5 z m 4,2 H 22 V 6 h 3 v 1 z"
   id="path4895"
   style="fill-rule:evenodd" />
		<rect
   width="18"
   height="1"
   x="13"
   y="10"
   id="rect4897"
   style="fill-rule:evenodd" />
		<rect
   width="1"
   height="23"
   x="29"
   y="10"
   id="rect4899"
   style="fill-rule:evenodd" />
		<rect
   width="1"
   height="23"
   x="14"
   y="10"
   id="rect4901"
   style="fill-rule:evenodd" />
		<rect
   width="16"
   height="1"
   x="14"
   y="32"
   id="rect4903"
   style="fill-rule:evenodd" />
		<rect
   width="9"
   height="1"
   x="6"
   y="12"
   id="rect4905"
   style="fill-rule:evenodd" />
		<rect
   width="1"
   height="20"
   x="7"
   y="12"
   id="rect4907"
   style="fill-rule:evenodd" />
		<rect
   width="8"
   height="1"
   x="7"
   y="31"
   id="rect4909"
   style="fill-rule:evenodd" />
		<rect
   width="8"
   height="1"
   x="29"
   y="31"
   id="rect4911"
   style="fill-rule:evenodd" />
		<rect
   width="9"
   height="1"
   x="29"
   y="12"
   id="rect4913"
   style="fill-rule:evenodd" />
		<rect
   width="1"
   height="20"
   x="36"
   y="12"
   id="rect4915"
   style="fill-rule:evenodd" />
		<path
   d="m 31,24 v 5 h 4 v -5 h -4 z m 3,4 h -2 v -3 h 2 v 3 z"
   id="path4917"
   style="fill-rule:evenodd" />
		<path
   d="m 9,24 v 5 h 4 V 24 H 9 z m 3,4 h -2 v -3 h 2 v 3 z"
   id="path4919"
   style="fill-rule:evenodd" />
		<path
   d="m 9,15 v 5 h 4 V 15 H 9 z m 3,4 h -2 v -3 h 2 v 3 z"
   id="path4921"
   style="fill-rule:evenodd" />
		<path
   d="m 31,15 v 5 h 4 v -5 h -4 z m 3,4 h -2 v -3 h 2 v 3 z"
   id="path4923"
   style="fill-rule:evenodd" />
		<path
   d="m 23,13 v 5 h 5 v -5 h -5 z m 4,4 h -3 v -3 h 3 v 3 z"
   id="path4925"
   style="fill-rule:evenodd" />
		<path
   d="m 16,13 v 5 h 5 v -5 h -5 z m 4,4 h -3 v -3 h 3 v 3 z"
   id="path4927"
   style="fill-rule:evenodd" />
		<rect
   width="10"
   height="1"
   x="17"
   y="25"
   id="rect4929"
   style="fill-rule:evenodd" />
		<rect
   width="1"
   height="8"
   x="25"
   y="25"
   id="rect4931"
   style="fill-rule:evenodd" />
		<rect
   width="1"
   height="7"
   x="18"
   y="25"
   id="rect4933"
   style="fill-rule:evenodd" />
	</g>
	<rect
   width="3"
   height="1"
   x="22"
   y="6"
   id="rect4935"
   style="fill:#808080;fill-rule:evenodd" />
</g>
</svg>