<?xml version="1.0" encoding="UTF-8" standalone="no"?>
<!-- Created with Inkscape (http://www.inkscape.org/) -->

<svg
   xmlns:dc="http://purl.org/dc/elements/1.1/"
   xmlns:cc="http://creativecommons.org/ns#"
   xmlns:rdf="http://www.w3.org/1999/02/22-rdf-syntax-ns#"
   xmlns:svg="http://www.w3.org/2000/svg"
   xmlns="http://www.w3.org/2000/svg"
   version="1.1"
   width="32"
   height="32"
   id="svg2">
  <defs
     id="defs4" />
  <metadata
     id="metadata7">
    <rdf:RDF>
      <cc:Work
         rdf:about="">
        <dc:format>image/svg+xml</dc:format>
        <dc:type
           rdf:resource="http://purl.org/dc/dcmitype/StillImage" />
        <dc:title></dc:title>
      </cc:Work>
    </rdf:RDF>
  </metadata>
  <g
     transform="translate(0,-1020.3622)"
     id="layer1"
     style="display:inline">
    <g
       id="layer2"
       style="display:none">
      <g
         transform="translate(3.2433474,0.4054)"
         id="g3336"
         style="display:inline">
        <rect
           width="8.6151419"
           height="5.0254993"
           x="37.602562"
           y="1034.3169"
           id="rect3324" />
        <rect
           width="10.490202"
           height="2.331156"
           x="36.690369"
           y="1042.6829"
           id="rect3326" />
        <rect
           width="0.96286881"
           height="8.2604008"
           x="36.487659"
           y="24.043663"
           transform="translate(0.20270922,1019.7541)"
           id="rect3328" />
        <rect
           width="0.96286881"
           height="8.2604008"
           x="46.190613"
           y="1043.7977"
           id="rect3330" />
        <rect
           width="0.76015955"
           height="4.1555328"
           x="38.970848"
           y="1038.7808"
           id="rect3332" />
        <rect
           width="0.76015955"
           height="4.1555328"
           x="44.241287"
           y="1038.7808"
           id="rect3334" />
      </g>
    </g>
    <g
       transform="matrix(1.0574243,0,0,1.0618538,-2.023542,-64.408546)"
       id="g4058" />
    <g
       transform="translate(0,1020.3622)"
       id="layer1-3">
      <rect
         width="2.0000002"
         height="13.000042"
         x="2"
         y="16.999983"
         id="rect3328-1" />
      <rect
         width="1.0000001"
         height="7.5136437"
         x="6"
         y="7.9999828"
         id="rect3334-5" />
      <rect
         width="1.0000001"
         height="7.5136437"
         x="15"
         y="8"
         id="rect12149" />
      <rect
         width="2.0000002"
         height="13.000042"
         x="18"
         y="17"
         id="rect12151" />
      <rect
         width="14"
         height="7"
         x="4"
         y="1.9999826"
         id="rect3324-0"
         style="fill:#004890;fill-opacity:1" />
      <rect
         width="18"
         height="4.0000119"
         x="2"
         y="14.999983"
         id="rect3326-8"
         style="fill:#004890;fill-opacity:1" />
    </g>
    <g
       transform="matrix(0.7817173,0.62363296,-0.62363296,0.7817173,644.70873,208.50872)"
       id="g12268">
      <path
         d="m 26,1025.3622 5,0 0,24 -2.462486,5.0358 L 26,1049.3622 z"
         id="path12270"
         style="fill:#000000;stroke:none" />
      <rect
         width="3"
         height="2"
         x="27"
         y="1026.3622"
         id="rect12272"
         style="fill:#ff8080;stroke:none" />
      <rect
         width="3"
         height="4.0000172"
         x="27"
         y="1028.3622"
         id="rect12274"
         style="fill:#666666;stroke:none" />
      <path
         d="m 27,1032.3622 3,0 0,16.9999 -3,0 z"
         id="path12276"
         style="fill:#ffdd55;stroke:none" />
      <path
         d="m 27,29 1,2 1.09375,0 L 30,29 z"
         transform="translate(0,1020.3622)"
         id="path12278"
         style="fill:#ffffff;stroke:#000000;stroke-width:0;stroke-linecap:butt;stroke-linejoin:miter;stroke-miterlimit:4;stroke-opacity:1;stroke-dasharray:none" />
    </g>
  </g>
</svg>
