<?xml version="1.0" encoding="UTF-8" standalone="no"?>
<!-- Created with Inkscape (http://www.inkscape.org/) -->

<svg
   xmlns:dc="http://purl.org/dc/elements/1.1/"
   xmlns:cc="http://creativecommons.org/ns#"
   xmlns:rdf="http://www.w3.org/1999/02/22-rdf-syntax-ns#"
   xmlns:svg="http://www.w3.org/2000/svg"
   xmlns="http://www.w3.org/2000/svg"
   xmlns:xlink="http://www.w3.org/1999/xlink"
   xmlns:sodipodi="http://sodipodi.sourceforge.net/DTD/sodipodi-0.dtd"
   xmlns:inkscape="http://www.inkscape.org/namespaces/inkscape"
   width="32"
   height="32"
   id="svg2"
   version="1.1"
   inkscape:version="0.48.2 r9819"
   sodipodi:docname="icon-attendanceHistory.svg">
  <defs
     id="defs4">
    <linearGradient
       id="linearGradient15915">
      <stop
         style="stop-color:#ffffff;stop-opacity:1;"
         offset="0"
         id="stop15917" />
      <stop
         style="stop-color:#004890;stop-opacity:1;"
         offset="1"
         id="stop15919" />
    </linearGradient>
    <linearGradient
       inkscape:collect="always"
       xlink:href="#linearGradient15915"
       id="linearGradient15921"
       x1="22.707632"
       y1="21.516071"
       x2="22.707632"
       y2="40.433731"
       gradientUnits="userSpaceOnUse" />
  </defs>
  <sodipodi:namedview
     id="base"
     pagecolor="#ffffff"
     bordercolor="#666666"
     borderopacity="1.0"
     inkscape:pageopacity="0.0"
     inkscape:pageshadow="2"
     inkscape:zoom="27.906251"
     inkscape:cx="8.9329131"
     inkscape:cy="13.824453"
     inkscape:document-units="px"
     inkscape:current-layer="layer1"
     showgrid="true"
     inkscape:window-width="1690"
     inkscape:window-height="1081"
     inkscape:window-x="0"
     inkscape:window-y="22"
     inkscape:window-maximized="0"
     showguides="true"
     inkscape:guide-bbox="true">
    <inkscape:grid
       type="xygrid"
       id="grid5900" />
    <sodipodi:guide
       orientation="0,1"
       position="3,30"
       id="guide11731" />
    <sodipodi:guide
       orientation="1,0"
       position="2,23"
       id="guide11733" />
    <sodipodi:guide
       orientation="0,1"
       position="30,2"
       id="guide11735" />
    <sodipodi:guide
       orientation="1,0"
       position="30,-1"
       id="guide11737" />
  </sodipodi:namedview>
  <metadata
     id="metadata7">
    <rdf:RDF>
      <cc:Work
         rdf:about="">
        <dc:format>image/svg+xml</dc:format>
        <dc:type
           rdf:resource="http://purl.org/dc/dcmitype/StillImage" />
        <dc:title></dc:title>
      </cc:Work>
    </rdf:RDF>
  </metadata>
  <g
     inkscape:label="Layer 1"
     inkscape:groupmode="layer"
     id="layer1"
     transform="translate(0,-1020.3622)"
     style="display:inline">
    <rect
       y="1028.3622"
       x="15"
       height="7.5136437"
       width="1.0000001"
       id="rect5921" />
    <g
       inkscape:groupmode="layer"
       id="layer2"
       inkscape:label="Layer"
       style="display:none">
      <g
         style="display:inline"
         transform="translate(3.2433474,0.4054)"
         id="g3336">
        <rect
           id="rect3324"
           width="8.6151419"
           height="5.0254993"
           x="37.602562"
           y="1034.3169" />
        <rect
           id="rect3326"
           width="10.490202"
           height="2.331156"
           x="36.690369"
           y="1042.6829" />
        <rect
           id="rect3328"
           width="0.96286881"
           height="8.2604008"
           x="36.487659"
           y="24.043663"
           transform="translate(0.20270922,1019.7541)" />
        <rect
           y="1043.7977"
           x="46.190613"
           height="8.2604008"
           width="0.96286881"
           id="rect3330" />
        <rect
           id="rect3332"
           width="0.76015955"
           height="4.1555328"
           x="38.970848"
           y="1038.7808" />
        <rect
           y="1038.7808"
           x="44.241287"
           height="4.1555328"
           width="0.76015955"
           id="rect3334" />
      </g>
    </g>
    <rect
       y="1037.3622"
       x="2"
       height="13.000042"
       width="2.0000002"
       id="rect3328-1" />
    <rect
       id="rect3330-4"
       width="1.7439826"
       height="12.857694"
       x="18.51473"
       y="1037.5045" />
    <rect
       id="rect3334-5"
       width="1.0000001"
       height="7.5136437"
       x="6"
       y="1028.3622" />
    <rect
       y="1035.3622"
       x="2"
       height="4.0000119"
       width="18.307777"
       id="rect3326-8"
       style="fill:#004890;fill-opacity:1" />
    <g
       id="g4058"
       transform="matrix(1.0574243,0,0,1.0618538,-4.0609035,-66.521885)">
      <path
         sodipodi:type="arc"
         style="fill:#ffffff;fill-opacity:1"
         id="path5956"
         sodipodi:cx="23.238522"
         sodipodi:cy="22.038074"
         sodipodi:rx="9.0123177"
         sodipodi:ry="9.4244118"
         d="m 32.250839,22.038074 c 0,5.204959 -4.034952,9.424412 -9.012317,9.424412 -4.977366,0 -9.012318,-4.219453 -9.012318,-9.424412 0,-5.204958 4.034952,-9.424411 9.012318,-9.424411 4.977365,0 9.012317,4.219453 9.012317,9.424411 z"
         transform="matrix(1.103126,0,0,1.0548904,-2.4095025,1019.577)" />
      <path
         transform="matrix(0.99863324,0,0,0.9493025,0.01875381,1021.9573)"
         d="m 32.250839,22.038074 c 0,5.204959 -4.034952,9.424412 -9.012317,9.424412 -4.977366,0 -9.012318,-4.219453 -9.012318,-9.424412 0,-5.204958 4.034952,-9.424411 9.012318,-9.424411 4.977365,0 9.012317,4.219453 9.012317,9.424411 z"
         sodipodi:ry="9.4244118"
         sodipodi:rx="9.0123177"
         sodipodi:cy="22.038074"
         sodipodi:cx="23.238522"
         id="path3026"
         style="fill:#000000;fill-opacity:1"
         sodipodi:type="arc" />
      <path
         sodipodi:type="arc"
         style="fill:url(#linearGradient15921);fill-opacity:1"
         id="path3028"
         sodipodi:cx="23.238522"
         sodipodi:cy="22.038074"
         sodipodi:rx="9.0123177"
         sodipodi:ry="9.4244118"
         d="m 32.250839,22.038074 c 0,5.204959 -4.034952,9.424412 -9.012317,9.424412 -4.977366,0 -9.012318,-4.219453 -9.012318,-9.424412 0,-5.204958 4.034952,-9.424411 9.012318,-9.424411 4.977365,0 9.012317,4.219453 9.012317,9.424411 z"
         transform="matrix(0.88767399,0,0,0.84628533,2.5972827,1024.1985)" />
      <rect
         y="1035.7083"
         x="22.718924"
         height="7.086216"
         width="1"
         id="rect3036"
         style="fill:#000000;fill-opacity:1;stroke:none" />
      <rect
         transform="matrix(0.67976189,-0.73343287,0.73343287,0.67976189,0,0)"
         style="fill:#000000;fill-opacity:1;stroke:none"
         id="rect3806"
         width="1"
         height="6"
         x="-749.58228"
         y="725.9043" />
      <path
         transform="matrix(0.60665762,0,0,0.60665762,11.31247,1029.2378)"
         d="m 20.461367,22.396416 c 0,0.455186 -0.369002,0.824188 -0.824189,0.824188 -0.455186,0 -0.824188,-0.369002 -0.824188,-0.824188 0,-0.455187 0.369002,-0.824188 0.824188,-0.824188 0.455187,0 0.824189,0.369001 0.824189,0.824188 z"
         sodipodi:ry="0.82418811"
         sodipodi:rx="0.82418811"
         sodipodi:cy="22.396416"
         sodipodi:cx="19.637178"
         id="path3808"
         style="fill:#000000;fill-opacity:1;stroke:none"
         sodipodi:type="arc" />
    </g>
    <rect
       y="1022.3622"
       x="4"
       height="7"
       width="14"
       id="rect3324-0"
       style="fill:#004890;fill-opacity:1" />
  </g>
</svg>
