<?xml version="1.0" encoding="UTF-8" standalone="no"?>
<!-- Created with Inkscape (http://www.inkscape.org/) -->

<svg
   xmlns:dc="http://purl.org/dc/elements/1.1/"
   xmlns:cc="http://creativecommons.org/ns#"
   xmlns:rdf="http://www.w3.org/1999/02/22-rdf-syntax-ns#"
   xmlns:svg="http://www.w3.org/2000/svg"
   xmlns="http://www.w3.org/2000/svg"
   xmlns:xlink="http://www.w3.org/1999/xlink"
   version="1.1"
   width="32"
   height="32"
   id="svg2">
  <defs
     id="defs4">
    <linearGradient
       id="linearGradient12935">
      <stop
         id="stop12937"
         style="stop-color:#ffe680;stop-opacity:1"
         offset="0" />
      <stop
         id="stop12939"
         style="stop-color:#ffffff;stop-opacity:1"
         offset="1" />
    </linearGradient>
    <linearGradient
       x1="15.013585"
       y1="1.4148686"
       x2="14.894446"
       y2="13.01941"
       id="linearGradient12941"
       xlink:href="#linearGradient12935"
       gradientUnits="userSpaceOnUse" />
  </defs>
  <metadata
     id="metadata7">
    <rdf:RDF>
      <cc:Work
         rdf:about="">
        <dc:format>image/svg+xml</dc:format>
        <dc:type
           rdf:resource="http://purl.org/dc/dcmitype/StillImage" />
        <dc:title></dc:title>
      </cc:Work>
    </rdf:RDF>
  </metadata>
  <g
     transform="translate(0,-1020.3622)"
     id="layer1"
     style="display:inline">
    <g
       transform="translate(0.999997,8.9315852)"
       id="g7115">
      <path
         d="m 29,8 c 0,3.313708 -6.044156,6 -13.5,6 C 8.0441559,14 2,11.313708 2,8 2,7.1011949 2,6.721189 2,6.721189 2,6.721189 10.066467,2 15.5,2 c 4.876376,0 13.467003,4.8609671 13.467003,4.8609671 0,0 0.033,-0.0074 0.033,1.1390329 z"
         transform="translate(0,1021.6002)"
         id="path7117"
         style="fill:#000000;stroke:none" />
      <path
         d="M 29,8 A 13.5,6 0 1 1 2,8 13.5,6 0 1 1 29,8 z"
         transform="translate(0,1020.3622)"
         id="path7119"
         style="fill:#808080;stroke:none" />
      <path
         d="m 28,7.5 a 13,5.5 0 1 1 -26,0 13,5.5 0 1 1 26,0 z"
         transform="matrix(0.96153846,0,0,0.95330405,1.0769231,1021.0134)"
         id="path7121"
         style="fill:#ffe680;stroke:none" />
    </g>
    <g
       id="layer2"
       style="display:none">
      <g
         transform="translate(14.189645,0)"
         id="g3389"
         style="display:inline">
        <rect
           width="3.8514752"
           height="3.4967341"
           x="26.453552"
           y="1042.4801"
           id="rect3370"
           style="fill:#ffffff" />
        <rect
           width="1.9257376"
           height="3.4967341"
           x="22.399368"
           y="1047.8013"
           id="rect3372"
           style="fill:#ffffff" />
        <g
           transform="translate(-14.240322,0.60812767)"
           id="g3364">
          <rect
             width="2.2804787"
             height="5.0254993"
             x="37.146465"
             y="1034.1141"
             id="rect3346" />
          <rect
             width="9.1725922"
             height="2.331156"
             x="37.146465"
             y="1042.4801"
             id="rect3348" />
          <rect
             width="0.96286881"
             height="13.277469"
             x="37.146465"
             y="1038.578"
             id="rect3350" />
          <rect
             width="0.96286881"
             height="8.2604008"
             x="45.35619"
             y="1043.595"
             id="rect3352" />
        </g>
      </g>
    </g>
    <g
       transform="translate(0,5.7038341)"
       id="g7107">
      <path
         d="m 29,8 c 0,3.313708 -6.044156,6 -13.5,6 C 8.0441559,14 2,11.313708 2,8 2,7.1011949 2,6.721189 2,6.721189 2,6.721189 10.066467,2 15.5,2 c 4.876376,0 13.467003,4.8609671 13.467003,4.8609671 0,0 0.033,-0.0074 0.033,1.1390329 z"
         transform="translate(0,1021.6002)"
         id="path7109"
         style="fill:#000000;stroke:none" />
      <path
         d="M 29,8 A 13.5,6 0 1 1 2,8 13.5,6 0 1 1 29,8 z"
         transform="translate(0,1020.3622)"
         id="path7111"
         style="fill:#808080;stroke:none" />
      <path
         d="m 28,7.5 a 13,5.5 0 1 1 -26,0 13,5.5 0 1 1 26,0 z"
         transform="matrix(0.96153846,0,0,0.95330405,1.0769231,1021.0134)"
         id="path7113"
         style="fill:#ffe680;stroke:none" />
    </g>
    <g
       transform="translate(0.999997,3.050888)"
       id="g7099">
      <path
         d="m 29,8 c 0,3.313708 -6.044156,6 -13.5,6 C 8.0441559,14 2,11.313708 2,8 2,7.1011949 2,6.721189 2,6.721189 2,6.721189 10.066467,2 15.5,2 c 4.876376,0 13.467003,4.8609671 13.467003,4.8609671 0,0 0.033,-0.0074 0.033,1.1390329 z"
         transform="translate(0,1021.6002)"
         id="path7101"
         style="fill:#000000;stroke:none" />
      <path
         d="M 29,8 A 13.5,6 0 1 1 2,8 13.5,6 0 1 1 29,8 z"
         transform="translate(0,1020.3622)"
         id="path7103"
         style="fill:#808080;stroke:none" />
      <path
         d="m 28,7.5 a 13,5.5 0 1 1 -26,0 13,5.5 0 1 1 26,0 z"
         transform="matrix(0.96153846,0,0,0.95330405,1.0769231,1021.0134)"
         id="path7105"
         style="fill:#ffe680;stroke:none" />
    </g>
    <g
       id="g7094">
      <path
         d="m 29,8 c 0,3.313708 -6.044156,6 -13.5,6 C 8.0441559,14 2,11.313708 2,8 2,7.1011949 2,6.721189 2,6.721189 2,6.721189 10.066467,2 15.5,2 c 4.876376,0 13.467003,4.8609671 13.467003,4.8609671 0,0 0.033,-0.0074 0.033,1.1390329 z"
         transform="translate(0,1021.6002)"
         id="path7089"
         style="fill:#000000;stroke:none" />
      <path
         d="M 29,8 A 13.5,6 0 1 1 2,8 13.5,6 0 1 1 29,8 z"
         transform="translate(0,1020.3622)"
         id="path7083"
         style="fill:#808080;stroke:none" />
      <path
         d="m 28,7.5 a 13,5.5 0 1 1 -26,0 13,5.5 0 1 1 26,0 z"
         transform="matrix(0.96153846,0,0,0.95330405,1.0769231,1021.0134)"
         id="path7087"
         style="fill:url(#linearGradient12941);fill-opacity:1;stroke:none" />
    </g>
    <rect
       width="1.1035669"
       height="10.149114"
       x="733.0517"
       y="1000.1729"
       transform="matrix(0.92746128,0.3739192,-0.6617792,0.7496988,0,0)"
       id="rect7187"
       style="fill:#000000;stroke:none" />
    <path
       d="m 17.884707,1024.8284 c -2.543723,-1.0254 -5.835972,-0.4632 -7.353467,1.256 -1.5174956,1.719 -0.685552,3.9439 1.858171,4.9696 1.604932,0.6469 3.492245,0.6728 5.059361,0.1639 l -1.343365,-0.5416 c -1.020993,0.1651 -2.132595,0.078 -3.105407,-0.3141 -1.978452,-0.7976 -2.625512,-2.5282 -1.445245,-3.8652 1.180268,-1.3371 3.740912,-1.7745 5.719364,-0.9768 0.972812,0.3923 1.614139,1.012 1.884231,1.6976 l 1.343364,0.5416 c -0.08193,-1.1736 -1.012075,-2.2839 -2.617007,-2.931 z"
       id="path7189"
       style="fill:#000000;stroke:none" />
    <rect
       width="1.1035669"
       height="10.149114"
       x="732.8313"
       y="999.83612"
       transform="matrix(0.92746128,0.3739192,-0.6617792,0.7496988,0,0)"
       id="rect7202"
       style="fill:#808080;stroke:none" />
    <path
       d="m 17.903136,1024.4935 c -2.543723,-1.0254 -5.835972,-0.4632 -7.353467,1.256 -1.5174959,1.719 -0.6855523,3.9439 1.858171,4.9696 1.604932,0.6469 3.492245,0.6728 5.059361,0.1639 l -1.343365,-0.5416 c -1.020993,0.1651 -2.132595,0.078 -3.105407,-0.3141 -1.978452,-0.7976 -2.625512,-2.5282 -1.445245,-3.8652 1.180268,-1.3371 3.740912,-1.7745 5.719364,-0.9768 0.972812,0.3923 1.614139,1.012 1.884231,1.6976 l 1.343364,0.5416 c -0.08193,-1.1736 -1.012075,-2.2839 -2.617007,-2.931 z"
       id="path7204"
       style="fill:#808080;stroke:none" />
  </g>
</svg>
