<?xml version="1.0" encoding="UTF-8" standalone="no"?>
<!-- Created with Inkscape (http://www.inkscape.org/) -->

<svg
   xmlns:dc="http://purl.org/dc/elements/1.1/"
   xmlns:cc="http://creativecommons.org/ns#"
   xmlns:rdf="http://www.w3.org/1999/02/22-rdf-syntax-ns#"
   xmlns:svg="http://www.w3.org/2000/svg"
   xmlns="http://www.w3.org/2000/svg"
   xmlns:xlink="http://www.w3.org/1999/xlink"
   xmlns:sodipodi="http://sodipodi.sourceforge.net/DTD/sodipodi-0.dtd"
   xmlns:inkscape="http://www.inkscape.org/namespaces/inkscape"
   width="32"
   height="32"
   id="svg2"
   version="1.1"
   inkscape:version="0.48.2 r9819"
   sodipodi:docname="icon-bulletin.svg">
  <defs
     id="defs4">
    <linearGradient
       id="linearGradient12962">
      <stop
         style="stop-color:#ffe680;stop-opacity:1;"
         offset="0"
         id="stop12964" />
      <stop
         style="stop-color:#ffffff;stop-opacity:1;"
         offset="1"
         id="stop12966" />
    </linearGradient>
    <linearGradient
       inkscape:collect="always"
       id="linearGradient16650">
      <stop
         style="stop-color:#cccccc;stop-opacity:1;"
         offset="0"
         id="stop16652" />
      <stop
         style="stop-color:#cccccc;stop-opacity:0;"
         offset="1"
         id="stop16654" />
    </linearGradient>
    <linearGradient
       id="linearGradient16623">
      <stop
         style="stop-color:#ffffff;stop-opacity:1;"
         offset="0"
         id="stop16625" />
      <stop
         style="stop-color:#ffffff;stop-opacity:0.90196079;"
         offset="1"
         id="stop16627" />
    </linearGradient>
    <linearGradient
       inkscape:collect="always"
       xlink:href="#linearGradient16650"
       id="linearGradient16656"
       x1="18"
       y1="1040.3622"
       x2="27"
       y2="1049.3622"
       gradientUnits="userSpaceOnUse" />
    <linearGradient
       inkscape:collect="always"
       xlink:href="#linearGradient12962"
       id="linearGradient12968"
       x1="14"
       y1="29"
       x2="14"
       y2="5"
       gradientUnits="userSpaceOnUse" />
  </defs>
  <sodipodi:namedview
     id="base"
     pagecolor="#ffffff"
     bordercolor="#666666"
     borderopacity="1.0"
     inkscape:pageopacity="0.0"
     inkscape:pageshadow="2"
     inkscape:zoom="27.911921"
     inkscape:cx="13.499395"
     inkscape:cy="15.318868"
     inkscape:document-units="px"
     inkscape:current-layer="layer1"
     showgrid="true"
     inkscape:window-width="1690"
     inkscape:window-height="1081"
     inkscape:window-x="0"
     inkscape:window-y="22"
     inkscape:window-maximized="0"
     showguides="true"
     inkscape:guide-bbox="true">
    <inkscape:grid
       type="xygrid"
       id="grid4049" />
    <sodipodi:guide
       orientation="1,0"
       position="2,31"
       id="guide6230" />
    <sodipodi:guide
       orientation="0,1"
       position="3,30"
       id="guide6232" />
    <sodipodi:guide
       orientation="0,1"
       position="1,2"
       id="guide6234" />
    <sodipodi:guide
       orientation="1,0"
       position="30,26"
       id="guide6236" />
  </sodipodi:namedview>
  <metadata
     id="metadata7">
    <rdf:RDF>
      <cc:Work
         rdf:about="">
        <dc:format>image/svg+xml</dc:format>
        <dc:type
           rdf:resource="http://purl.org/dc/dcmitype/StillImage" />
        <dc:title></dc:title>
      </cc:Work>
    </rdf:RDF>
  </metadata>
  <g
     inkscape:label="Layer 1"
     inkscape:groupmode="layer"
     id="layer1"
     transform="translate(0,-1020.3622)"
     style="display:inline">
    <g
       inkscape:groupmode="layer"
       id="layer2"
       inkscape:label="Layer"
       style="display:none">
      <g
         style="display:inline"
         id="g3389"
         transform="translate(14.189645,0)">
        <rect
           id="rect3370"
           width="3.8514752"
           height="3.4967341"
           x="26.453552"
           y="1042.4801"
           style="fill:#ffffff" />
        <rect
           style="fill:#ffffff"
           y="1047.8013"
           x="22.399368"
           height="3.4967341"
           width="1.9257376"
           id="rect3372" />
        <g
           id="g3364"
           transform="translate(-14.240322,0.60812767)">
          <rect
             id="rect3346"
             width="2.2804787"
             height="5.0254993"
             x="37.146465"
             y="1034.1141" />
          <rect
             id="rect3348"
             width="9.1725922"
             height="2.331156"
             x="37.146465"
             y="1042.4801" />
          <rect
             id="rect3350"
             width="0.96286881"
             height="13.277469"
             x="37.146465"
             y="1038.578" />
          <rect
             y="1043.595"
             x="45.35619"
             height="8.2604008"
             width="0.96286881"
             id="rect3352" />
        </g>
      </g>
    </g>
    <path
       transform="translate(0,1020.3622)"
       style="fill:#000000;stroke:none"
       d="M 2,4 28,4 28,20.499537 18.528863,30 2,30 z"
       id="rect6761"
       inkscape:connector-curvature="0"
       sodipodi:nodetypes="cccccc" />
    <path
       transform="translate(0,1020.3622)"
       style="fill:url(#linearGradient12968);stroke:none;fill-opacity:1"
       d="M 3,5 27,5 27,19.926306 18.063112,29 3,29 z"
       id="rect6763"
       inkscape:connector-curvature="0"
       sodipodi:nodetypes="cccccc" />
    <path
       style="font-size:medium;font-style:normal;font-variant:normal;font-weight:normal;font-stretch:normal;text-indent:0;text-align:start;text-decoration:none;line-height:normal;letter-spacing:normal;word-spacing:normal;text-transform:none;direction:ltr;block-progression:tb;writing-mode:lr-tb;text-anchor:start;baseline-shift:baseline;color:#000000;fill:#000000;fill-opacity:1;stroke:none;stroke-width:1px;marker:none;visibility:visible;display:inline;overflow:visible;enable-background:accumulate;font-family:Sans;-inkscape-font-specification:Sans"
       d="m 17,1039.3622 0,10 1,1 10,-10 0,-1 z"
       id="path6767"
       inkscape:connector-curvature="0"
       sodipodi:nodetypes="cccccc" />
    <path
       sodipodi:nodetypes="cccc"
       inkscape:connector-curvature="0"
       id="path6773"
       d="m 18,1040.3622 0,9 9,-9 z"
       style="font-size:medium;font-style:normal;font-variant:normal;font-weight:normal;font-stretch:normal;text-indent:0;text-align:start;text-decoration:none;line-height:normal;letter-spacing:normal;word-spacing:normal;text-transform:none;direction:ltr;block-progression:tb;writing-mode:lr-tb;text-anchor:start;baseline-shift:baseline;color:#000000;fill:url(#linearGradient16656);fill-opacity:1;stroke:none;stroke-width:1px;marker:none;visibility:visible;display:inline;overflow:visible;enable-background:accumulate;font-family:Sans;-inkscape-font-specification:Sans" />
    <path
       transform="matrix(1.5,0,0,1.5,-10.5,1023.3622)"
       d="m 19,4 c 0,1.1045695 -0.895431,2 -2,2 -1.104569,0 -2,-0.8954305 -2,-2 0,-1.1045695 0.895431,-2 2,-2 1.104569,0 2,0.8954305 2,2 z"
       sodipodi:ry="2"
       sodipodi:rx="2"
       sodipodi:cy="4"
       sodipodi:cx="17"
       id="path6779"
       style="fill:#000000;stroke:none"
       sodipodi:type="arc" />
    <path
       transform="matrix(2,0,0,2,-27,1019.3622)"
       d="m 22,5 c 0,0.5522847 -0.447715,1 -1,1 -0.552285,0 -1,-0.4477153 -1,-1 0,-0.5522847 0.447715,-1 1,-1 0.552285,0 1,0.4477153 1,1 z"
       sodipodi:ry="1"
       sodipodi:rx="1"
       sodipodi:cy="5"
       sodipodi:cx="21"
       id="path6781"
       style="fill:#d40000;stroke:none;fill-opacity:1"
       sodipodi:type="arc" />
    <g
       id="g6789"
       transform="translate(-0.50157781,0.57323178)">
      <path
         sodipodi:type="arc"
         style="fill:#000000;stroke:none"
         id="path6785"
         sodipodi:cx="17"
         sodipodi:cy="4"
         sodipodi:rx="2"
         sodipodi:ry="2"
         d="m 19,4 c 0,1.1045695 -0.895431,2 -2,2 -1.104569,0 -2,-0.8954305 -2,-2 0,-1.1045695 0.895431,-2 2,-2 1.104569,0 2,0.8954305 2,2 z"
         transform="translate(-1,1024.3622)" />
      <path
         sodipodi:type="arc"
         style="fill:#800000;stroke:none;fill-opacity:1"
         id="path6787"
         sodipodi:cx="21"
         sodipodi:cy="5"
         sodipodi:rx="1"
         sodipodi:ry="1"
         d="m 22,5 c 0,0.5522847 -0.447715,1 -1,1 -0.552285,0 -1,-0.4477153 -1,-1 0,-0.5522847 0.447715,-1 1,-1 0.552285,0 1,0.4477153 1,1 z"
         transform="translate(-5,1023.3622)" />
    </g>
    <path
       sodipodi:type="arc"
       style="fill:#000000;stroke:none"
       id="path6775"
       sodipodi:cx="17"
       sodipodi:cy="4"
       sodipodi:rx="2"
       sodipodi:ry="2"
       d="m 19,4 c 0,1.1045695 -0.895431,2 -2,2 -1.104569,0 -2,-0.8954305 -2,-2 0,-1.1045695 0.895431,-2 2,-2 1.104569,0 2,0.8954305 2,2 z"
       transform="translate(-0.46575082,1023.8638)" />
    <path
       sodipodi:type="arc"
       style="fill:#d40000;stroke:none;fill-opacity:1"
       id="path6777"
       sodipodi:cx="21"
       sodipodi:cy="5"
       sodipodi:rx="1"
       sodipodi:ry="1"
       d="m 22,5 c 0,0.5522847 -0.447715,1 -1,1 -0.552285,0 -1,-0.4477153 -1,-1 0,-0.5522847 0.447715,-1 1,-1 0.552285,0 1,0.4477153 1,1 z"
       transform="translate(-4.4657508,1022.8638)" />
    <rect
       style="fill:#808080;stroke:none"
       id="rect6793"
       width="16"
       height="1"
       x="7"
       y="1033.437" />
    <rect
       y="1036.4106"
       x="7.0358272"
       height="1"
       width="16"
       id="rect6795"
       style="fill:#808080;stroke:none" />
    <rect
       style="fill:#808080;stroke:none"
       id="rect6797"
       width="8.0358276"
       height="1"
       x="6.9641733"
       y="1039.3485" />
    <rect
       y="1042.3938"
       x="6.9283462"
       height="1"
       width="8.0358276"
       id="rect6799"
       style="fill:#808080;stroke:none" />
    <rect
       style="fill:#808080;stroke:none"
       id="rect6801"
       width="8.0358276"
       height="1"
       x="6.9641733"
       y="1045.4033" />
  </g>
</svg>
