<?xml version="1.0" encoding="UTF-8" standalone="no"?>
<!-- Created with Inkscape (http://www.inkscape.org/) -->

<svg
   xmlns:dc="http://purl.org/dc/elements/1.1/"
   xmlns:cc="http://creativecommons.org/ns#"
   xmlns:rdf="http://www.w3.org/1999/02/22-rdf-syntax-ns#"
   xmlns:svg="http://www.w3.org/2000/svg"
   xmlns="http://www.w3.org/2000/svg"
   version="1.1"
   width="256.33105"
   height="42.000042"
   id="powerschool-logo">
  <defs
     id="defs12524">
	
	
	
	
	
	
	
	
	
	
	
</defs>
  <metadata
     id="metadata12527">
    <rdf:RDF>
      <cc:Work
         rdf:about="">
        <dc:format>image/svg+xml</dc:format>
        <dc:type
           rdf:resource="http://purl.org/dc/dcmitype/StillImage" />
        <dc:title></dc:title>
      </cc:Work>
    </rdf:RDF>
  </metadata>
  <g
     transform="translate(-9,-1006.3622)"
     id="layer1">
    <path
       d="m 21.747526,1012.4483 h -5.960141 v 12.5002 h 6.305657 c 2.332229,0 4.146185,-0.5173 5.441869,-1.638 1.209303,-1.1206 1.900334,-2.6725 1.900334,-4.7414 0,-4.0517 -2.591365,-6.1208 -7.687719,-6.1208 z m -5.960141,34.9139 H 10 v -40 h 12.784072 c 3.800671,0 6.823931,1.0345 9.156161,3.1034 2.245849,2.069 3.455155,4.8276 3.455155,8.2759 0,2.3275 -0.604651,4.3965 -1.813957,6.207 -1.122924,1.8102 -2.764123,3.1032 -4.750837,3.8792 -2.073093,0.8621 -5.009974,1.207 -8.810645,1.207 h -4.232564 v 17.3275 z"
       id="path14429"
       style="fill:#122a4f;fill-rule:evenodd" />
    <path
       d="m 44.395627,1026.6876 c -2.328517,0 -4.255565,0.8015 -5.781147,2.3238 -1.525578,1.5225 -2.248222,3.4457 -2.248222,5.8498 0,2.3159 0.722644,4.2392 2.328517,5.6814 1.52558,1.5228 3.452629,2.252 5.861439,2.252 2.408811,0 4.416152,-0.7292 5.941735,-2.252 1.525578,-1.5144 2.248223,-3.4376 2.248223,-5.7534 0,-2.3321 -0.802939,-4.2553 -2.408811,-5.7778 -1.525581,-1.5223 -3.532923,-2.3238 -5.941734,-2.3238 z m 0.240881,-4.3273 c 3.773803,0 6.824964,1.2019 9.314067,3.606 2.489106,2.4041 3.773804,5.4492 3.773804,9.0552 0,3.5178 -1.284698,6.499 -3.773804,8.8147 -2.569396,2.3318 -5.700851,3.526 -9.554948,3.526 -3.69351,0 -6.744671,-1.1942 -9.233774,-3.6061 -2.489106,-2.316 -3.773804,-5.2889 -3.773804,-8.8949 0,-3.5259 1.284698,-6.5711 3.773804,-8.8949 2.569397,-2.4041 5.700851,-3.606 9.474655,-3.606 z"
       id="path14431"
       style="fill:#122a4f;fill-rule:evenodd" />
    <polygon
       points="6.62,1.66 7.42,3.51 8.2,1.66 8.66,1.66 9.43,3.51 10.23,1.66 10.88,1.66 9.53,4.77 9.33,4.77 8.43,2.64 7.53,4.77 7.33,4.77 5.97,1.66 "
       transform="matrix(8.0779273,0,0,8.0618699,7.7816797,1008.9071)"
       id="polygon14433"
       style="fill:#122a4f;fill-rule:evenodd" />
    <path
       d="m 97.977023,1032.4577 h 12.189537 c -0.15729,-1.8917 -0.70778,-3.3828 -1.73013,-4.4031 -1.02235,-1.0203 -2.35926,-1.5697 -4.08939,-1.5697 -1.73013,0 -3.14569,0.5494 -4.24668,1.5697 -1.100987,1.0203 -1.808767,2.5114 -2.123337,4.4031 z m 16.908057,2.1897 v 0.6278 H 97.898385 c 0.07862,2.2763 0.865064,4.1599 2.280625,5.4941 1.41555,1.4127 3.30296,2.127 5.50494,2.127 3.22433,0 6.05544,-1.0283 8.72927,-2.9119 v 4.6307 c -1.41555,0.9496 -2.90975,1.6481 -4.32531,2.0406 -1.4942,0.3924 -3.14568,0.628 -5.11174,0.628 -2.67383,0 -4.79716,-0.5494 -6.448653,-1.6483 -1.651482,-1.1066 -2.98839,-2.59 -3.932096,-4.4031 -1.022346,-1.8837 -1.494199,-4.0812 -1.494199,-6.5142 0,-3.6025 1.022347,-6.5928 3.14568,-8.861 2.044691,-2.3546 4.797158,-3.4533 8.100138,-3.4533 3.22432,0 5.74087,1.0987 7.62828,3.2963 1.96605,2.276 2.90976,5.2585 2.90976,8.9473 z"
       id="path14435"
       style="fill:#122a4f;fill-rule:evenodd" />
    <path
       d="m 117.52751,1022.9229 h 4.89763 v 5.529 l 0.24087,-0.4007 c 2.32838,-3.8462 4.73703,-5.689 7.06541,-5.689 1.84665,0 3.77359,0.8812 5.78079,2.7241 l -2.56924,4.327 c -1.68606,-1.6024 -3.29184,-2.4038 -4.73704,-2.4038 -1.60577,0 -2.89039,0.7213 -4.09473,2.2437 -1.12404,1.4421 -1.68606,3.2052 -1.68606,5.2884 v 12.8206 h -4.89763 v -24.4393 z"
       id="path14437"
       style="fill:#122a4f;fill-rule:evenodd" />
    <path
       d="m 148.0083,1030.5067 -4.28525,-2.5156 c -2.68877,-1.6771 -4.62134,-3.2704 -5.72205,-4.8639 -1.09232,-1.5093 -1.68048,-3.3542 -1.68048,-5.3668 0,-3.1026 1.0923,-5.6184 3.19292,-7.5471 2.1006,-1.9288 4.97423,-2.8511 8.33521,-2.8511 3.26856,0 6.30183,0.9223 8.98221,2.7672 v 6.2893 c -2.7728,-2.6835 -5.79768,-4.0252 -9.07463,-4.0252 -1.84854,0 -3.35257,0.4193 -4.53731,1.2579 -1.18476,0.8387 -1.76452,1.9288 -1.76452,3.2705 0,1.174 0.42013,2.2642 1.34439,3.2704 0.84865,1.0064 2.27707,2.0965 4.20121,3.1867 l 4.28525,2.5157 c 4.70537,2.851 7.15048,6.457 7.15048,10.9013 0,3.1028 -1.10072,5.6186 -3.20134,7.6227 -2.10059,1.9288 -4.78938,2.9435 -8.15036,2.9435 -3.86511,0 -7.39414,-1.1742 -10.58707,-3.6143 v -7.0357 c 3.02488,3.782 6.5539,5.7106 10.50304,5.7106 1.76452,0 3.19294,-0.503 4.37768,-1.4256 1.15954,-1.0145 1.75612,-2.2724 1.75612,-3.698 0,-2.3396 -1.75612,-4.6121 -5.1255,-6.7925 z"
       id="path14439"
       style="fill:#122a4f;fill-rule:evenodd" />
    <path
       d="m 179.94033,1041.3019 v 4.7224 c -2.44476,0.8654 -4.81065,1.3379 -7.09769,1.3379 -3.78544,0 -6.8532,-1.102 -9.14812,-3.3922 -2.2003,-2.1959 -3.3911,-5.2735 -3.3911,-8.9648 0,-3.8643 1.11197,-6.8552 3.31224,-9.2084 2.20815,-2.3614 5.12609,-3.4631 8.7538,-3.4631 1.25393,0 2.36588,0.079 3.39112,0.3148 1.02522,0.2359 2.20816,0.7082 3.70657,1.3379 v 5.1159 c -2.44477,-1.5742 -4.73181,-2.3612 -6.77436,-2.3612 -2.20815,0 -4.02201,0.787 -5.44154,2.2826 -1.34067,1.4952 -2.05045,3.4631 -2.05045,5.8242 0,2.4399 0.70978,4.4075 2.28703,5.8163 1.49052,1.4956 3.54095,2.2119 6.07247,2.2119 1.88483,0.011 4.01414,-0.5511 6.38003,-1.5742 z"
       id="path14441"
       style="fill:#122a4f;fill-rule:evenodd" />
    <path
       d="m 181.56377,1047.3622 v -36.8844 h 4.77906 v 15.7394 c 2.07093,-2.4642 4.54011,-3.6565 7.56685,-3.6565 1.59303,0 3.1064,0.3973 4.3808,1.1923 1.27443,0.7949 2.23026,1.9077 2.8595,3.3387 0.63721,1.4309 0.96377,3.5772 0.96377,6.4389 v 13.8316 h -4.85872 v -15.024 c 0,-1.8284 -0.39825,-3.2592 -1.2744,-4.2927 -0.87618,-1.1128 -2.07095,-1.6692 -3.50467,-1.6692 -1.02749,0 -2.07093,0.2384 -3.01877,0.7948 -0.87616,0.5566 -1.91162,1.5105 -3.11436,2.7823 v 17.4088 h -4.77906 z"
       id="path14443"
       style="fill:#122a4f;fill-rule:evenodd" />
    <path
       d="m 216.5555,1026.7893 c -2.31705,0 -4.23463,0.7974 -5.7527,2.3124 -1.51808,1.5151 -2.23716,3.4287 -2.23716,5.8209 0,2.3046 0.80697,4.2184 2.31705,5.6536 1.51009,1.5152 3.43566,2.2408 5.83262,2.2408 2.38897,0 4.38644,-0.7256 5.90453,-2.2408 1.51807,-1.507 2.23716,-3.4289 2.23716,-5.7333 0,-2.3203 -0.79899,-4.234 -2.31707,-5.7492 -1.59,-1.507 -3.58745,-2.3044 -5.98443,-2.3044 z m 0.24769,-4.306 c 3.75525,0 6.79141,1.196 9.26826,3.5882 2.47687,2.3923 3.74727,5.4224 3.74727,9.0106 0,3.5006 -1.2704,6.4671 -3.74727,8.7715 -2.55675,2.3203 -5.6808,3.5086 -9.50794,3.5086 -3.67535,0 -6.71949,-1.1883 -9.18038,-3.5883 -2.49285,-2.3046 -3.69132,-5.2629 -3.69132,-8.8513 0,-3.5084 1.19847,-6.5387 3.68333,-8.8511 2.54877,-2.3922 5.66483,-3.5882 9.42805,-3.5882 z"
       id="path14445"
       style="fill:#122a4f;fill-rule:evenodd" />
    <path
       d="m 244.19635,1026.7893 c -2.31707,0 -4.22665,0.7974 -5.75272,2.3124 -1.44616,1.5151 -2.23717,3.4287 -2.23717,5.8209 0,2.3046 0.79899,4.2184 2.31707,5.6536 1.51808,1.5152 3.51555,2.2408 5.91252,2.2408 2.39695,0 4.31453,-0.7256 5.82462,-2.2408 1.51808,-1.507 2.32506,-3.4289 2.32506,-5.7333 0,-2.3203 -0.80698,-4.234 -2.40496,-5.7492 -1.582,-1.507 -3.57948,-2.3044 -5.98442,-2.3044 z m 0.2397,-4.306 c 3.75524,0 6.8713,1.196 9.34815,3.5882 2.47686,2.3923 3.67535,5.4224 3.67535,9.0106 0,3.5006 -1.27838,6.4671 -3.76323,8.7715 -2.46888,2.3203 -5.66483,3.5086 -9.42806,3.5086 -3.66737,0 -6.79141,-1.1883 -9.26826,-3.5883 -2.47687,-2.3046 -3.66736,-5.2629 -3.66736,-8.8432 0,-3.5086 1.19049,-6.5387 3.75524,-8.8512 2.47686,-2.4002 5.60091,-3.5962 9.34817,-3.5962 z"
       id="path14447"
       style="fill:#122a4f;fill-rule:evenodd" />
    <rect
       width="4.8496833"
       height="36.88446"
       x="259.48138"
       y="1010.4778"
       id="rect14449"
       style="fill:#122a4f;fill-rule:evenodd" />
  </g>
</svg>
