<?xml version="1.0" encoding="iso-8859-1"?>
<!-- Generator: Adobe Illustrator 16.0.0, SVG Export Plug-In . SVG Version: 6.00 Build 0)  -->
<!DOCTYPE svg PUBLIC "-//W3C//DTD SVG 1.1//EN" "http://www.w3.org/Graphics/SVG/1.1/DTD/svg11.dtd">
<svg version="1.1" id="Capa_1" xmlns="http://www.w3.org/2000/svg" xmlns:xlink="http://www.w3.org/1999/xlink" x="0px" y="0px"
	 width="150.469px" height="150.469px" viewBox="0 0 150.469 150.469" style="enable-background:new 0 0 150.469 150.469;"
	 xml:space="preserve">
<g>
	<g>
		<path d="M141.485,90.934c-5.142-3.492-10.128-5.126-10.169-5.374l-0.077-0.442c0,0-5.669-35.543-17.858-46.014
			c-14.369-12.053-32.75-11.7-46.142-9.03c-6.104,1.217-5.806,2.763,0.326,3.81c14.872,2.541,29.832,9.628,38.495,12.557
			c5.892,1.993,12.797,5.499,6.61,4.859c-10.98-1.141-45.942-18.925-66.654-17.155c-10.046,0.923-12.549,9.54-12.549,9.54
			l-7.568,21.432c0,0-0.444,1.249-0.997,2.791c-0.547,1.544-6.078,3.232-11.983,5.184C6.687,75.146,0.136,78.938,0,86.002
			c0.856,15.771,76.225,49.39,138.504,30.119C154.446,110.984,153.438,99.047,141.485,90.934z M70.647,87.416
			c-17.342-3.228-28.04-8.212-34.243-12.146c-2.409-1.526-3.368-4.571-2.26-7.203c0.958-2.27,1.895-4.547,2.801-6.838
			c0.588-1.489,1.763-2.67,3.25-3.27c1.485-0.599,3.151-0.561,4.609,0.1c7.451,3.382,18.501,7.75,30.645,10.354
			c13.404,2.876,28.413,1.86,37.806,0.752c2.961-0.348,5.712,1.581,6.383,4.482c0.543,2.345,1.165,5.053,1.697,7.416
			c0.704,3.111-1.219,6.207-4.318,6.964C98.246,92.61,70.647,87.416,70.647,87.416z"/>
	</g>
</g>
<g>
</g>
<g>
</g>
<g>
</g>
<g>
</g>
<g>
</g>
<g>
</g>
<g>
</g>
<g>
</g>
<g>
</g>
<g>
</g>
<g>
</g>
<g>
</g>
<g>
</g>
<g>
</g>
<g>
</g>
</svg>
